ffmpeg version 5.1.6-0+deb12u1+rpt1 Copyright (c) 2000-2024 the FFmpeg developers
  built with gcc 12 (Debian 12.2.0-14)
  configuration: --prefix=/usr --extra-version=0+deb12u1+rpt1 --toolchain=hardened --incdir=/usr/include/aarch64-linux-gnu --enable-gpl --disable-stripping --disable-mmal --enable-gnutls --enable-ladspa --enable-libaom --enable-libass --enable-libbluray --enable-libbs2b --enable-libcaca --enable-libcdio --enable-libcodec2 --enable-libdav1d --enable-libflite --enable-libfontconfig --enable-libfreetype --enable-libfribidi --enable-libglslang --enable-libgme --enable-libgsm --enable-libjack --enable-libmp3lame --enable-libmysofa --enable-libopenjpeg --enable-libopenmpt --enable-libopus --enable-libpulse --enable-librabbitmq --enable-librist --enable-librubberband --enable-libshine --enable-libsnappy --enable-libsoxr --enable-libspeex --enable-libsrt --enable-libssh --enable-libsvtav1 --enable-libtheora --enable-libtwolame --enable-libvidstab --enable-libvorbis --enable-libvpx --enable-libwebp --enable-libx265 --enable-libxml2 --enable-libxvid --enable-libzimg --enable-libzmq --enable-libzvbi --enable-lv2 --enable-omx --enable-openal --enable-opencl --enable-opengl --enable-sand --enable-sdl2 --disable-sndio --enable-libjxl --enable-neon --enable-v4l2-request --enable-libudev --enable-epoxy --libdir=/usr/lib/aarch64-linux-gnu --arch=arm64 --enable-pocketsphinx --enable-librsvg --enable-libdc1394 --enable-libdrm --enable-vout-drm --enable-libiec61883 --enable-chromaprint --enable-frei0r --enable-libx264 --enable-libplacebo --enable-librav1e --enable-shared
  libavutil      57. 28.100 / 57. 28.100
  libavcodec     59. 37.100 / 59. 37.100
  libavformat    59. 27.100 / 59. 27.100
  libavdevice    59.  7.100 / 59.  7.100
  libavfilter     8. 44.100 /  8. 44.100
  libswscale      6.  7.100 /  6.  7.100
  libswresample   4.  7.100 /  4.  7.100
  libpostproc    56.  6.100 / 56.  6.100
Input #0, aac, from 'https://stream.yammat.fm/radio/8000/yammat.mp3':
  Metadata:
    icy-br          : 320
    icy-name        : Yammat FM
    icy-pub         : 1
    icy-url         : https://www.yammat.fm
    StreamTitle     : C Duncan - Say
  Duration: N/A, bitrate: 319 kb/s
  Stream #0:0: Audio: aac (LC), 44100 Hz, stereo, fltp, 319 kb/s
Stream mapping:
  Stream #0:0 -> #0:0 (aac (native) -> mp3 (libmp3lame))
Press [q] to stop, [?] for help
Output #0, mp3, to 'yammat_test_recording_2025-02-23_17-29-35.mp3':
  Metadata:
    icy-br          : 320
    icy-name        : Yammat FM
    icy-pub         : 1
    icy-url         : https://www.yammat.fm
    StreamTitle     : C Duncan - Say
    TSSE            : Lavf59.27.100
  Stream #0:0: Audio: mp3, 44100 Hz, stereo, fltp, 192 kb/s
    Metadata:
      encoder         : Lavc59.37.100 libmp3lame
size=       1kB time=00:00:00.00 bitrate=N/A speed=N/A    size=      49kB time=00:00:02.01 bitrate= 197.7kbits/s speed= 3.4x    size=      66kB time=00:00:02.74 bitrate= 196.2kbits/s speed=2.12x    size=      81kB time=00:00:03.39 bitrate= 195.4kbits/s speed=1.71x    size=      97kB time=00:00:04.07 bitrate= 194.8kbits/s speed=1.55x    size=     112kB time=00:00:04.70 bitrate= 194.4kbits/s speed=1.43x    size=     128kB time=00:00:05.38 bitrate= 194.1kbits/s speed=1.36x    size=     145kB time=00:00:06.11 bitrate= 193.9kbits/s speed=1.31x    size=     161kB time=00:00:06.81 bitrate= 193.7kbits/s speed=1.28x    size=     175kB time=00:00:07.41 bitrate= 193.5kbits/s speed=1.24x    size=     189kB time=00:00:08.02 bitrate= 193.4kbits/s speed=1.21x    size=     208kB time=00:00:08.80 bitrate= 193.3kbits/s speed= 1.2x    size=     223kB time=00:00:09.45 bitrate= 193.2kbits/s speed=1.18x    size=     238kB time=00:00:10.11 bitrate= 193.1kbits/s speed=1.17x    size=     253kB time=00:00:10.73 bitrate= 193.1kbits/s speed=1.16x    size=     256kB time=00:00:11.41 bitrate= 183.7kbits/s speed=1.15x    size=     256kB time=00:00:12.06 bitrate= 173.8kbits/s speed=1.13x    size=     256kB time=00:00:12.67 bitrate= 165.5kbits/s speed=1.13x    size=     256kB time=00:00:13.37 bitrate= 156.8kbits/s speed=1.12x    size=     256kB time=00:00:14.02 bitrate= 149.5kbits/s speed=1.11x    size=     256kB time=00:00:14.73 bitrate= 142.3kbits/s speed=1.11x    size=     353kB time=00:00:15.02 bitrate= 192.8kbits/s speed=1.11x    
video:0kB audio:353kB subtitle:0kB other streams:0kB global headers:0kB muxing overhead: 0.227905%
Transferred:   	      160 KiB / 353.456 KiB, 45%, 0 B/s, ETA -
Transferred:            0 / 1, 0%
Elapsed time:         0.2s
Transferring:
 * yammat_test_recording_2025-02-23_17-29-35.mp3: 45% /353.456Ki, 0/s, -Transferred:   	  353.456 KiB / 353.456 KiB, 100%, 0 B/s, ETA -
Transferred:            0 / 1, 0%
Elapsed time:         0.7s
Transferring:
 * yammat_test_recording_2025-02-23_17-29-35.mp3:100% /353.456Ki, 0/s, -Transferred:   	  353.456 KiB / 353.456 KiB, 100%, 353.455 KiB/s, ETA 0s
Transferred:            0 / 1, 0%
Elapsed time:         1.2s
Transferring:
 * yammat_test_recording_2025-02-23_17-29-35.mp3:100% /353.456Ki, 353.347Ki/s, 0Transferred:   	  353.456 KiB / 353.456 KiB, 100%, 353.455 KiB/s, ETA 0s
Transferred:            1 / 1, 100%
Elapsed time:         1.3s
ffmpeg version 5.1.6-0+deb12u1+rpt1 Copyright (c) 2000-2024 the FFmpeg developers
  built with gcc 12 (Debian 12.2.0-14)
  configuration: --prefix=/usr --extra-version=0+deb12u1+rpt1 --toolchain=hardened --incdir=/usr/include/aarch64-linux-gnu --enable-gpl --disable-stripping --disable-mmal --enable-gnutls --enable-ladspa --enable-libaom --enable-libass --enable-libbluray --enable-libbs2b --enable-libcaca --enable-libcdio --enable-libcodec2 --enable-libdav1d --enable-libflite --enable-libfontconfig --enable-libfreetype --enable-libfribidi --enable-libglslang --enable-libgme --enable-libgsm --enable-libjack --enable-libmp3lame --enable-libmysofa --enable-libopenjpeg --enable-libopenmpt --enable-libopus --enable-libpulse --enable-librabbitmq --enable-librist --enable-librubberband --enable-libshine --enable-libsnappy --enable-libsoxr --enable-libspeex --enable-libsrt --enable-libssh --enable-libsvtav1 --enable-libtheora --enable-libtwolame --enable-libvidstab --enable-libvorbis --enable-libvpx --enable-libwebp --enable-libx265 --enable-libxml2 --enable-libxvid --enable-libzimg --enable-libzmq --enable-libzvbi --enable-lv2 --enable-omx --enable-openal --enable-opencl --enable-opengl --enable-sand --enable-sdl2 --disable-sndio --enable-libjxl --enable-neon --enable-v4l2-request --enable-libudev --enable-epoxy --libdir=/usr/lib/aarch64-linux-gnu --arch=arm64 --enable-pocketsphinx --enable-librsvg --enable-libdc1394 --enable-libdrm --enable-vout-drm --enable-libiec61883 --enable-chromaprint --enable-frei0r --enable-libx264 --enable-libplacebo --enable-librav1e --enable-shared
  libavutil      57. 28.100 / 57. 28.100
  libavcodec     59. 37.100 / 59. 37.100
  libavformat    59. 27.100 / 59. 27.100
  libavdevice    59.  7.100 / 59.  7.100
  libavfilter     8. 44.100 /  8. 44.100
  libswscale      6.  7.100 /  6.  7.100
  libswresample   4.  7.100 /  4.  7.100
  libpostproc    56.  6.100 / 56.  6.100
[tcp @ 0x5555e3954ee0] Failed to resolve hostname stream.yammat.fm: Temporary failure in name resolution
https://stream.yammat.fm/radio/8000/yammat.mp3: Input/output error
ffmpeg version 5.1.6-0+deb12u1+rpt1 Copyright (c) 2000-2024 the FFmpeg developers
  built with gcc 12 (Debian 12.2.0-14)
  configuration: --prefix=/usr --extra-version=0+deb12u1+rpt1 --toolchain=hardened --incdir=/usr/include/aarch64-linux-gnu --enable-gpl --disable-stripping --disable-mmal --enable-gnutls --enable-ladspa --enable-libaom --enable-libass --enable-libbluray --enable-libbs2b --enable-libcaca --enable-libcdio --enable-libcodec2 --enable-libdav1d --enable-libflite --enable-libfontconfig --enable-libfreetype --enable-libfribidi --enable-libglslang --enable-libgme --enable-libgsm --enable-libjack --enable-libmp3lame --enable-libmysofa --enable-libopenjpeg --enable-libopenmpt --enable-libopus --enable-libpulse --enable-librabbitmq --enable-librist --enable-librubberband --enable-libshine --enable-libsnappy --enable-libsoxr --enable-libspeex --enable-libsrt --enable-libssh --enable-libsvtav1 --enable-libtheora --enable-libtwolame --enable-libvidstab --enable-libvorbis --enable-libvpx --enable-libwebp --enable-libx265 --enable-libxml2 --enable-libxvid --enable-libzimg --enable-libzmq --enable-libzvbi --enable-lv2 --enable-omx --enable-openal --enable-opencl --enable-opengl --enable-sand --enable-sdl2 --disable-sndio --enable-libjxl --enable-neon --enable-v4l2-request --enable-libudev --enable-epoxy --libdir=/usr/lib/aarch64-linux-gnu --arch=arm64 --enable-pocketsphinx --enable-librsvg --enable-libdc1394 --enable-libdrm --enable-vout-drm --enable-libiec61883 --enable-chromaprint --enable-frei0r --enable-libx264 --enable-libplacebo --enable-librav1e --enable-shared
  libavutil      57. 28.100 / 57. 28.100
  libavcodec     59. 37.100 / 59. 37.100
  libavformat    59. 27.100 / 59. 27.100
  libavdevice    59.  7.100 / 59.  7.100
  libavfilter     8. 44.100 /  8. 44.100
  libswscale      6.  7.100 /  6.  7.100
  libswresample   4.  7.100 /  4.  7.100
  libpostproc    56.  6.100 / 56.  6.100
Input #0, aac, from 'https://stream.yammat.fm/radio/8000/yammat.mp3':
  Metadata:
    icy-br          : 320
    icy-name        : Yammat FM
    icy-pub         : 1
    icy-url         : https://www.yammat.fm
    StreamTitle     : Khruangbin - Evan Finds the Third Room
  Duration: N/A, bitrate: 320 kb/s
  Stream #0:0: Audio: aac (LC), 44100 Hz, stereo, fltp, 320 kb/s
Stream mapping:
  Stream #0:0 -> #0:0 (aac (native) -> mp3 (libmp3lame))
Press [q] to stop, [?] for help
Output #0, mp3, to 'yammat_test_recording_2025-02-23_17-42-11.mp3':
  Metadata:
    icy-br          : 320
    icy-name        : Yammat FM
    icy-pub         : 1
    icy-url         : https://www.yammat.fm
    StreamTitle     : Khruangbin - Evan Finds the Third Room
    TSSE            : Lavf59.27.100
  Stream #0:0: Audio: mp3, 44100 Hz, stereo, fltp, 192 kb/s
    Metadata:
      encoder         : Lavc59.37.100 libmp3lame
size=       1kB time=00:00:00.00 bitrate=N/A speed=N/A    size=      49kB time=00:00:02.01 bitrate= 197.8kbits/s speed=3.46x    size=      64kB time=00:00:02.66 bitrate= 196.3kbits/s speed=2.18x    size=      80kB time=00:00:03.37 bitrate= 195.4kbits/s speed=1.77x    size=      94kB time=00:00:03.94 bitrate= 194.9kbits/s speed=1.53x    size=     111kB time=00:00:04.67 bitrate= 194.5kbits/s speed=1.44x    size=     127kB time=00:00:05.35 bitrate= 194.2kbits/s speed=1.36x    size=     142kB time=00:00:06.00 bitrate= 193.9kbits/s speed= 1.3x    size=     158kB time=00:00:06.68 bitrate= 193.7kbits/s speed=1.27x    size=     170kB time=00:00:07.18 bitrate= 193.6kbits/s speed=1.24x    size=     186kB time=00:00:07.89 bitrate= 193.5kbits/s speed=1.22x    size=     202kB time=00:00:08.56 bitrate= 193.4kbits/s speed= 1.2x    size=     216kB time=00:00:09.17 bitrate= 193.3kbits/s speed=1.18x    size=     233kB time=00:00:09.87 bitrate= 193.2kbits/s speed=1.17x    size=     249kB time=00:00:10.55 bitrate= 193.1kbits/s speed=1.15x    size=     256kB time=00:00:11.25 bitrate= 186.3kbits/s speed=1.14x    size=     256kB time=00:00:11.93 bitrate= 175.7kbits/s speed=1.13x    size=     256kB time=00:00:12.67 bitrate= 165.5kbits/s speed=1.13x    size=     256kB time=00:00:13.34 bitrate= 157.1kbits/s speed=1.12x    size=     256kB time=00:00:14.00 bitrate= 149.8kbits/s speed=1.11x    size=     256kB time=00:00:14.49 bitrate= 144.6kbits/s speed= 1.1x    size=     353kB time=00:00:15.02 bitrate= 192.8kbits/s speed=1.12x    
video:0kB audio:353kB subtitle:0kB other streams:0kB global headers:0kB muxing overhead: 0.234551%
Transferred:   	      160 KiB / 353.479 KiB, 45%, 0 B/s, ETA -
Transferred:            0 / 1, 0%
Elapsed time:         0.2s
Transferring:
 * yammat_test_recording_2025-02-23_17-42-11.mp3: 45% /353.479Ki, 0/s, -Transferred:   	  353.479 KiB / 353.479 KiB, 100%, 0 B/s, ETA -
Transferred:            0 / 1, 0%
Elapsed time:         0.7s
Transferring:
 * yammat_test_recording_2025-02-23_17-42-11.mp3:100% /353.479Ki, 0/s, -Transferred:   	  353.479 KiB / 353.479 KiB, 100%, 353.479 KiB/s, ETA 0s
Transferred:            0 / 1, 0%
Elapsed time:         1.2s
Transferring:
 * yammat_test_recording_2025-02-23_17-42-11.mp3:100% /353.479Ki, 353.455Ki/s, 0Transferred:   	  353.479 KiB / 353.479 KiB, 100%, 353.479 KiB/s, ETA 0s
Transferred:            1 / 1, 100%
Elapsed time:         1.5s
Starting recording, saving to yammat_recording_2025-02-23_17-56-45.mp3...
Traceback (most recent call last):
  File "/home/ssmurf/PythonProjects/Radio-show-recorder/recorder.py", line 118, in <module>
    schedule.every().day.at("18:00").do(record_radio_show(1800))
                                        ^^^^^^^^^^^^^^^^^^^^^^^
  File "/home/ssmurf/PythonProjects/Radio-show-recorder/recorder.py", line 30, in record_radio_show
    subprocess.run(command, check=True)
  File "/usr/lib/python3.11/subprocess.py", line 548, in run
    with Popen(*popenargs, **kwargs) as process:
         ^^^^^^^^^^^^^^^^^^^^^^^^^^^
  File "/usr/lib/python3.11/subprocess.py", line 1024, in __init__
    self._execute_child(args, executable, preexec_fn, close_fds,
  File "/usr/lib/python3.11/subprocess.py", line 1834, in _execute_child
    self.pid = _fork_exec(
               ^^^^^^^^^^^
TypeError: expected str, bytes or os.PathLike object, not int
ffmpeg version 5.1.6-0+deb12u1+rpt1 Copyright (c) 2000-2024 the FFmpeg developers
  built with gcc 12 (Debian 12.2.0-14)
  configuration: --prefix=/usr --extra-version=0+deb12u1+rpt1 --toolchain=hardened --incdir=/usr/include/aarch64-linux-gnu --enable-gpl --disable-stripping --disable-mmal --enable-gnutls --enable-ladspa --enable-libaom --enable-libass --enable-libbluray --enable-libbs2b --enable-libcaca --enable-libcdio --enable-libcodec2 --enable-libdav1d --enable-libflite --enable-libfontconfig --enable-libfreetype --enable-libfribidi --enable-libglslang --enable-libgme --enable-libgsm --enable-libjack --enable-libmp3lame --enable-libmysofa --enable-libopenjpeg --enable-libopenmpt --enable-libopus --enable-libpulse --enable-librabbitmq --enable-librist --enable-librubberband --enable-libshine --enable-libsnappy --enable-libsoxr --enable-libspeex --enable-libsrt --enable-libssh --enable-libsvtav1 --enable-libtheora --enable-libtwolame --enable-libvidstab --enable-libvorbis --enable-libvpx --enable-libwebp --enable-libx265 --enable-libxml2 --enable-libxvid --enable-libzimg --enable-libzmq --enable-libzvbi --enable-lv2 --enable-omx --enable-openal --enable-opencl --enable-opengl --enable-sand --enable-sdl2 --disable-sndio --enable-libjxl --enable-neon --enable-v4l2-request --enable-libudev --enable-epoxy --libdir=/usr/lib/aarch64-linux-gnu --arch=arm64 --enable-pocketsphinx --enable-librsvg --enable-libdc1394 --enable-libdrm --enable-vout-drm --enable-libiec61883 --enable-chromaprint --enable-frei0r --enable-libx264 --enable-libplacebo --enable-librav1e --enable-shared
  libavutil      57. 28.100 / 57. 28.100
  libavcodec     59. 37.100 / 59. 37.100
  libavformat    59. 27.100 / 59. 27.100
  libavdevice    59.  7.100 / 59.  7.100
  libavfilter     8. 44.100 /  8. 44.100
  libswscale      6.  7.100 /  6.  7.100
  libswresample   4.  7.100 /  4.  7.100
  libpostproc    56.  6.100 / 56.  6.100
[tcp @ 0x55558ca04ee0] Failed to resolve hostname stream.yammat.fm: Temporary failure in name resolution
https://stream.yammat.fm/radio/8000/yammat.mp3: Input/output error
Starting recording, saving to yammat_recording_2025-02-23_18-00-20.mp3...
An error occurred during recording or upload: Command '['ffmpeg', '-i', 'https://stream.yammat.fm/radio/8000/yammat.mp3', '-t', '1800', '-c:a', 'libmp3lame', '-b:a', '192k', 'yammat_recording_2025-02-23_18-00-20.mp3']' returned non-zero exit status 1.
Traceback (most recent call last):
  File "/home/ssmurf/PythonProjects/Radio-show-recorder/recorder.py", line 118, in <module>
    schedule.every().day.at("18:07").do(record_radio_show("1800"))
  File "/home/ssmurf/PythonProjects/Radio-show-recorder/.venv/lib/python3.11/site-packages/schedule/__init__.py", line 655, in do
    self.job_func = functools.partial(job_func, *args, **kwargs)
                    ^^^^^^^^^^^^^^^^^^^^^^^^^^^^^^^^^^^^^^^^^^^^
TypeError: the first argument must be callable
